<?xml version="1.0" encoding="UTF-8"?><svg id="a" xmlns="http://www.w3.org/2000/svg" viewBox="0 0 2382.56 644.77"><path d="M1075.06,582.59c-5.13,6.61-9.74,12.62-14.98,18.11-21.27,22.27-46.89,37.14-77.31,41.74-57.78,8.74-109.04-7.26-153.14-44.95-42.1-35.98-65.89-82.47-74.84-136.8-1.15-7-1.11-7.03-8.01-7.03-91,0-182,0-272.99,0q-7.5,0-6.56,7.45c4.94,39.19,32.12,68.51,71.08,74.33,19.34,2.89,39.02,1.92,56.77-8.49,9.1-5.33,15.81-13.23,21.91-21.6,2.2-3.02,4.55-4.23,8.3-4.22,43.67,.12,87.33,.07,131,.08,6.63,0,6.78,.23,4.14,6.31-18.21,42.04-44.32,77.65-83.69,102.44-26.52,16.7-55.63,26.22-86.52,30.45-37.36,5.12-74.61,4.37-110.77-6.97-84.78-26.58-136.78-83.21-153.57-170.86-6.15-32.11-4.53-64.22,2.87-96.01,1.08-4.64-.01-5.6-4.6-5.58-50.5,.15-101,.15-151.5,0-4.81-.02-6.2,1.35-6.19,6.17,.14,82.56,.1,165.12,.1,247.69q0,7.74-7.62,7.75c-50.5,0-101,0-151.5,0-7.4,0-7.41-.02-7.41-7.56C0,412.63,0,210.22,0,7.81Q0,.02,7.67,0C125.33,0,242.99,0,360.66,0q7.87,0,7.88,8c0,41.61,0,83.23,0,124.84,0,7.17-.02,7.2-7.21,7.2-62.17,0-124.33,0-186.5,0q-8.29,0-8.29,8.5c0,23.8,0,47.61,0,71.41q0,6.74,6.97,6.76c57,0,114,0,171,0q7.7,0,7.72,7.77c0,21.31,0,42.61,0,63.92v5.6c2.17-.3,2.39-2.05,3.11-3.18,34.34-53.37,83.99-83.28,145.73-94.14,42.82-7.53,85.36-5.7,126.91,7.58,60.64,19.37,101.97,59.78,126.4,118.02,2.68,6.38,4.98,12.91,7.54,19.59,2.16-1.74,2.22-4.04,2.91-5.99,19.12-53.85,52.4-95.76,104.04-121.75,25.96-13.06,53.69-19.37,82.88-19.64,22.85-.21,45.21,2.06,66.76,10.11,20.53,7.66,38.04,19.75,52.97,35.69,1.09,1.17,1.9,2.75,3.8,3.17,1.11-1.87,.54-3.9,.54-5.81,.04-80.07,.03-160.13,.03-240.2,0-7.44,.01-7.46,7.41-7.46,165.5,0,330.99,0,496.49,0,7.45,0,7.47,.02,7.48,7.51,0,49.44,0,98.87,0,148.31,0,7.43-.03,7.44-7.51,7.44-58,0-116,0-174,0q-8.24,0-8.24,8.47c0,12.65,.21,25.31-.1,37.95-.12,4.94,1.63,6.14,6.32,6.13,54.67-.14,109.33-.09,164-.09,74.33,0,148.66,.04,223-.09,4.73,0,8.01,1.31,11.21,4.88,22.36,24.9,44.98,49.57,67.38,74.43,2.9,3.22,4.41,3.67,7.55,.02,21.43-24.83,43.18-49.39,64.67-74.17,3.23-3.73,6.67-5.18,11.62-5.17,65.67,.15,131.33,.1,197,.1,.67,0,1.34-.06,2,.02,1.43,.16,3.31-.59,4.11,.98,.85,1.67-.94,2.65-1.87,3.7-24.57,27.62-49.17,55.21-73.76,82.81-32.89,36.93-65.74,73.9-98.74,110.74-3.1,3.46-2.95,5.5,.17,8.97,49.88,55.47,99.59,111.08,149.34,166.66,8.55,9.55,17.11,19.1,25.63,28.68,.85,.95,2.46,1.82,1.96,3.22-.65,1.8-2.6,1.07-3.98,1.08-26.83,.04-53.67,.03-80.5,.03-42,0-84-.07-126,.09-4.92,.02-8.28-1.44-11.59-5.19-22.34-25.37-44.97-50.47-67.38-75.78-2.67-3.01-4.07-2-6.18,.39-21.35,24.24-42.91,48.29-64.07,72.7-4.71,5.44-9.43,7.96-16.91,7.95-232.33-.21-464.66-.17-696.99-.17-10.78,0-9.47,.4-9.52-9.35-.06-9.32-.02-18.64-.06-27.96,0-.59-.31-1.18-.73-2.7Zm161.32-271.81c0,91.21,0,182.42,0,273.63,0,6.68,.02,6.7,6.52,6.7,101.16,0,202.31,0,303.47,0,6.76,0,6.78-.02,6.78-7.01,0-28.13,0-56.26,0-84.39,0-7.07-.03-7.09-7.33-7.09-58.16,0-116.32,0-174.48,0-7.26,0-7.33-.08-7.33-7.15,0-45.77,0-91.54,0-137.31q0-7.65,7.77-7.66c58.33,0,116.65-.06,174.98,.1,5.09,.01,6.55-1.5,6.51-6.52-.22-26.46-.1-52.93-.1-79.39q0-7.43-7.35-7.44c-57.83,0-115.65-.06-173.48,.1-5.05,.01-6.55-1.47-6.52-6.5,.19-33.79,.1-67.57,.1-101.36q0-7.62,7.8-7.63c58.33,0,116.65-.06,174.98,.09,5.02,.01,6.61-1.41,6.57-6.49-.21-28.96-.1-57.92-.1-86.88q0-7.05-7.23-7.06c-101.32,0-202.64,0-303.97,0q-7.57,0-7.58,7.65c0,90.54,0,181.09,0,271.63Zm415.08,280.33h6.89c33.5,0,67.02-.84,100.47,.39,14.58,.54,23.68-4.39,32.75-15.25,23.05-27.59,47.41-54.07,71.17-81.07,2.6-2.95,4.32-3.73,7.37-.28,27.49,31.03,55.16,61.9,82.68,92.9,2.07,2.33,4.15,3.37,7.27,3.37,41.66-.08,83.32-.05,124.98-.08,1.26,0,2.98,.68,3.69-.67,.76-1.45-.92-2.32-1.74-3.24-17.19-19.24-34.42-38.45-51.65-57.67-32.11-35.83-64.21-71.68-96.38-107.45-2.34-2.6-2.55-4.41-.06-7.14,9.87-10.83,19.49-21.88,29.24-32.82,38.77-43.5,77.57-86.98,116.32-130.5,1-1.12,2.71-2.05,2.11-4.12-.56-.08-1.05-.22-1.54-.22-40.33-.01-80.66,.01-120.98-.08-3.07,0-4.9,1.44-6.72,3.53-26.26,30.12-52.54,60.21-78.83,90.31-4.72,5.4-4.79,5.45-9.58,.18-27.36-30.03-54.71-60.06-81.96-90.19-2.44-2.7-4.88-3.87-8.57-3.86-40.49,.13-80.99,.07-121.48,.11-1.39,0-2.97-.59-4.56,.96,10.86,12.2,21.68,24.36,32.51,36.51,38.67,43.37,77.31,86.76,116.07,130.05,2.94,3.28,2.94,5.45,0,8.74-39.33,43.9-78.54,87.9-117.76,131.89-10.28,11.53-20.52,23.11-31.69,35.69Zm-62.23,15.64c.41,.19,.82,.37,1.23,.56,6.64-7.38,13.31-14.73,19.91-22.14,47.72-53.56,95.43-107.15,143.16-160.71,4.76-5.35,4.78-5.26-.2-10.82-17.53-19.61-35.03-39.24-52.52-58.88-35.97-40.4-71.93-80.82-107.92-121.21-.81-.9-1.4-2.35-3.12-2.11-.98,1.9-.52,3.93-.52,5.87-.03,43.76-.02,87.53-.03,131.29,0,7.4-.03,7.41-7.53,7.41-58.31,0-116.63,0-174.94,0q-7.2,0-7.21,6.97c0,22.13,0,44.26,0,66.39q0,7.19,7.08,7.21c57.98,0,115.96,0,173.94,0q8.66,0,8.67,8.45c0,45.26,0,90.52,0,135.78,0,1.97,0,3.95,0,5.92Zm-518.12-184.85c.23-13.15-1.73-28.46-6.21-43.36-6.3-20.95-16.66-39.27-35.9-51.1-30.24-18.59-83.03-16.68-109.61,28.29-10.46,17.7-15.63,36.87-17.26,57.25-2.58,32.26,4.9,61.45,26.15,86.37,34.22,40.13,104.53,36.56,130.01-15.14,9.34-18.96,13.01-38.97,12.81-62.31Zm-522.72-60.19c24,0,48,.02,72-.01,5.71,0,6.15-.67,4.71-6.09-12.79-47.9-55.32-63.49-92.97-55.66-30.8,6.41-49.28,26.77-58.96,55.88-1.91,5.75-1.8,5.87,4.22,5.88,23.67,.02,47.33,0,71,0Z"/><path d="M2382.54,560.84c1.04,38.53-29.29,74.41-75.43,74.38-45-.03-75.39-34.73-75.43-74.61-.05-44.01,36.34-75.24,76.92-74.65,36.73,.53,74.92,29.43,73.95,74.88Zm-75.33-61.26c-34.57,0-59.71,25.49-59.73,60.57-.02,35.85,25.14,61.91,59.78,61.92,34.42,0,59.79-26.11,59.74-61.47-.06-35.71-24.85-61.01-59.78-61.02Z"/><path d="M2326.12,558.85c6.99,4.25,8.08,10.79,9.2,17.18,1.49,8.51,2.04,17.19,4.7,25.47,.84,2.62-.18,3.35-2.53,3.27-.17,0-.33,0-.5,0q-13.15,.77-15.41-12.37c-.95-5.57-1.57-11.2-2.8-16.71-1.77-7.9-5.53-10.93-13.68-11.07-15.46-.26-12.61-1.43-12.86,12.43-.13,7.49-.12,14.98,0,22.47,.06,3.72-1.18,5.32-5.2,5.33-9.9,.02-9.9,.19-9.9-9.59,0-23.97,0-47.94,0-71.9q0-9.11,9.35-9.11c9.5,0,19-.2,28.5,.07,17.88,.52,28.51,14.88,23.46,31.36-1.87,6.12-5.95,10.24-12.34,13.15Zm-22.81-7.76c3.16,0,6.36,.35,9.46-.07,6.81-.93,10.51-5.64,10.27-12.45-.21-6.15-4.07-10.02-10.89-10.68-2.47-.24-4.98-.15-7.48-.15-12.45-.01-12.5,0-12.43,12.35,.07,12.86-1.44,11.07,11.06,11.01Z"/></svg>