<svg xmlns="http://www.w3.org/2000/svg" width="377" height="130"><path d="M111.098 16.523h23.785c-.028.204-.051.391-.094.59-.008.047-.02.094-.027.14-.012.052-.024.099-.032.153l-.035.16q-.046.223-.093.446-.054.241-.102.476-.1.47-.2.934l-.234 1.101c-.175.832-.355 1.665-.53 2.5-.075.34-.145.684-.22 1.028l-.656 3.086q-.409 1.91-.812 3.82l-.024.098-.27 1.28-.374 1.767-.024.097q-.55 2.603-1.105 5.2c-.051.25-.106.5-.156.75q-.023.088-.04.183-.339 1.57-.671 3.145l-.094.449c-.008.031-.012.058-.02.09q-.128.608-.261 1.222-.078.368-.157.742l-.035.16q-.195.91-.383 1.817c-.601 2.883-1.336 5.727-2.109 8.566-.016.051-.027.098-.043.153q-.107.393-.215.793h.301c.012-.04.023-.074.031-.114.055-.148.121-.27.207-.406q.02-.034.043-.074c.047-.078.098-.156.145-.234.035-.055.066-.11.101-.164q.1-.16.2-.325.107-.175.214-.355a35 35 0 0 1 2.149-3.137q.03-.036.058-.074a32 32 0 0 1 1.168-1.438q.099-.117.196-.234c.394-.46.394-.46.61-.672q.105-.106.198-.219c.192-.218.395-.421.602-.625q.095-.1.195-.195.303-.312.637-.601c.101-.086.2-.18.3-.27q.347-.314.715-.605l.145-.122c2.926-2.378 6.457-3.937 13.055-4.574h.285c.988.004 1.973.028 2.957.145q.045.006.098.011c3.75.434 7.476 1.594 10.464 3.981l.121.094q.38.312.743.648c.105.102.218.2.328.297.46.41.875.879 1.254 1.363l.062.078a17 17 0 0 1 1.543 2.344c1.102 2 1.707 4.23 2.008 6.48.012.075.012.075.02.15.128 1.003.16 2.01.16 3.019 0 .058-.004.117-.004.175a27 27 0 0 1-.153 3.008l-.035.324-.008.09a31 31 0 0 1-.312 2.098c-.152.887-.34 1.766-.527 2.644q-.075.36-.157.72c-.12.585-.246 1.167-.37 1.753q-.067.289-.126.582-.338 1.57-.675 3.14-.665 3.107-1.329 6.208-.064.31-.132.62l-1.266 5.938c-.024.098-.043.2-.066.301q-.123.585-.25 1.172a402 402 0 0 1-.516 2.41q-.013.077-.031.153l-.036.156q-.012.081-.03.156l-1.266 5.922q-.629 2.94-1.258 5.883-.018.074-.035.156-.013.076-.032.152l-.03.153a9 9 0 0 0-.067.308q-.233 1.086-.465 2.176-.066.292-.125.586l-.07.332-.04.168q-.1.481-.207.969l-.57 2.676q-.029.145-.062.296-.017.089-.04.184c-.007.043-.007.043-.019.09q-.057.287-.121.574l-.059.277-.023.125c-.059.27-.059.27-.106.32q-.191.006-.378.005h-6.227q-1.782.001-3.559-.004h-13.621c.036-.176.067-.352.102-.528.008-.05.02-.097.027-.148q.116-.608.25-1.211.011-.07.028-.133l.03-.14q.03-.146.063-.297.066-.316.137-.637.106-.517.219-1.027c.027-.121.05-.243.078-.364a1 1 0 0 1 .02-.09q.065-.321.136-.648c.188-.867.371-1.738.559-2.61q.007-.046.02-.093.115-.558.238-1.121l.222-1.047.082-.383a41.678 41.678 0 0 1 .164-.773q.007-.047.02-.098c.008-.031.012-.062.02-.094l.527-2.48.02-.094c.062-.281.12-.566.183-.848l.281-1.324q.007-.046.02-.094.047-.236.101-.472.09-.426.18-.852.05-.236.101-.472.02-.094.04-.188c.007-.031.011-.062.02-.098l1.347-6.332.023-.097q.017-.094.04-.188c.03-.156.066-.316.1-.472.06-.286.118-.567.18-.852.036-.156.067-.316.102-.473q.007-.046.02-.093l.28-1.32c.06-.286.122-.567.18-.852.012-.047.012-.047.02-.094l.469-2.2a1 1 0 0 0 .02-.097l.187-.875q.214-1.009.43-2.012c.05-.25.105-.5.156-.746q.022-.094.039-.183l.48-2.25c.098-.453.192-.903.29-1.352l.163-.781c.446-2.012.446-2.012.762-4.05.004-.032.012-.067.016-.102.336-2.747.406-5.993-1.352-8.309-1.195-1.52-2.906-2.203-4.781-2.43a11 11 0 0 0-1.274-.043h-.132c-.645.004-1.274.02-1.91.145l-.122.023c-2.699.516-4.93 1.989-6.484 4.25-.824 1.223-1.43 2.567-1.902 3.957l-.047.14c-.324.99-.555 2.005-.766 3.017q-.052.233-.097.46c-.055.262-.114.524-.168.786q-.118.573-.243 1.148-.053.268-.113.535-.007.052-.02.106-.082.382-.16.758c-.191.898-.378 1.793-.57 2.69q-.01.041-.02.087c-.066.308-.128.617-.195.926-.11.5-.215 1.004-.32 1.504l-.176.832-.433 2.027-.036.172q-.129.597-.253 1.195c-.09.426-.184.856-.274 1.281l-.035.172q-.263 1.218-.52 2.442l-.304 1.422-.035.168c-.297 1.406-.598 2.808-.895 4.214q-.013.047-.02.098-.118.54-.23 1.078-.013.052-.02.098-.045.199-.085.398a1924 1924 0 0 1-.977 4.594q-.01.046-.02.094-.179.844-.359 1.687l-.258 1.215q-.012.047-.02.094-.32 1.5-.64 3-.03.157-.066.316c-.196.914-.196.914-.387 1.832q-.242 1.138-.484 2.27-.066.298-.125.597-.117.533-.227 1.067-.057.254-.11.508l-.1.472-.036.176q-.029.116-.05.238l-.032.133c-.023.102-.023.102-.066.145q-.186.005-.38.004h-6.226000000000001q-1.779.001-3.559-.004H90.234c.23-1.153.23-1.153.332-1.63.012-.046.02-.093.032-.144q.045-.223.097-.453l.07-.332q.085-.399.169-.797l.199-.941q.228-1.079.46-2.156c.063-.305.13-.61.192-.91q.405-1.904.809-3.813.257-1.185.508-2.375c.007-.031.011-.059.02-.086q.08-.385.16-.77.129-.593.253-1.19.01-.041.02-.087.043-.21.09-.426l.164-.765c.03-.14.058-.285.09-.426l.035-.168q.614-2.9 1.234-5.793.008-.04.016-.086l.035-.168.094-.426c.054-.257.105-.511.16-.77l.093-.425.016-.082q.13-.597.254-1.195l.164-.77q.01-.04.02-.086.256-1.218.52-2.441c.097-.473.198-.95.3-1.422l.035-.168.898-4.215a1 1 0 0 1 .02-.098q.113-.538.227-1.078l.023-.101.082-.395c.441-2.062.879-4.129 1.316-6.191q.638-2.983 1.27-5.965.66-3.11 1.32-6.215l.082-.379q.09-.425.18-.851.013-.048.02-.094c.035-.156.066-.313.101-.469q.423-1.994.848-3.988l.035-.168q.439-2.045.871-4.09c.008-.035.012-.066.02-.098q.18-.838.355-1.675c.434-2.032.863-4.063 1.297-6.094q.632-2.982 1.27-5.965a3651 3651 0 0 1 1.64-7.719q.016-.088.04-.183c.198-.946.401-1.895.6-2.84q.01-.042.02-.09l.094-.445a1 1 0 0 0 .02-.086c.011-.059.027-.117.038-.176l.645-3.043.066-.305q.196-.92.391-1.84l.106-.5q.064-.282.12-.566l.047-.207.06-.277.03-.153c.028-.125.028-.125.07-.254M179.098 45.535c3.91 0 7.824 0 11.734-.004h11.866999999999999c1.43 0 2.86-.004 4.29-.004h11.845999999999998c1.31-.004 2.618.024 3.919.172q.048.001.098.008c3.742.41 7.449 1.473 14.328 6.738q.05.06.101.117a17 17 0 0 1 1.969 2.801c2.148 3.711 2.828 8.078 2.395 16.352l-.012.094a41 41 0 0 1-.457 2.668q-.016.075-.031.152c-.227 1.129-.47 2.258-.708 3.387-.062.28-.12.562-.183.843l-.074.352c-.008.043-.008.043-.02.086q-.064.31-.133.625l-.515 2.426c-.008.027-.012.054-.02.086q-.107.502-.215 1.011l-.199.938q-.036.174-.074.344a1 1 0 0 1-.02.085q-.06.302-.125.602l-.504 2.36q-.596 2.817-1.199 5.636-.006.052-.02.098c-.073.36-.152.719-.226 1.082l-.023.097-.082.395-1.336 6.285c-.414 1.934-.824 3.863-1.235 5.797l-.21.992q-.03.147-.063.293-.007.046-.02.098l-.02.094q-.062.285-.12.57-.06.274-.117.555a189.585 189.585 0 0 1-.328 1.531c-.083.39-.165.785-.25 1.176l-.165.785c-.035.156-.066.312-.101.465q-.02.107-.043.215-.03.139-.063.285c-.007.05-.02.101-.03.156-.032.129-.032.129-.075.258h-23.781c.05-.438.05-.438.093-.645q.013-.07.032-.14c.007-.051.02-.102.03-.157q.019-.075.036-.164l.094-.445c.035-.16.07-.316.101-.477q.101-.456.196-.914.11-.502.215-1.004c.23-1.082.464-2.168.699-3.25q.066-.315.133-.632c.043-.2.09-.399.132-.598q.037-.186.078-.371c.02-.082.036-.168.055-.25q.016-.076.031-.153.016-.062.032-.132c.023-.121.023-.121.02-.285q-.041.03-.075.058a34 34 0 0 1-.875.613c-.375.258-.754.508-1.133.762q-.171.112-.344.23c-.593.395-1.191.786-1.793 1.165l-.101.066a106 106 0 0 1-3.45 2.086q-.073.041-.148.082c-.648.379-1.304.742-1.965 1.098-.113.062-.226.12-.336.183-.757.422-1.535.813-2.308 1.207q-.128.064-.262.133-1.02.515-2.062.988c-.094.047-.192.09-.286.133-3.34 1.524-6.78 2.82-18.046 4.887l-.133.008q-.363.008-.727-.008c-.082 0-.082 0-.164-.004-3.012-.117-6.008-.777-8.25-2.914l-.094-.082c-1.652-1.578-2.3-3.961-2.367-6.176-.05-2.941.754-5.86 1.903-8.547l.058-.136a40 40 0 0 1 2.145-4.329l.226-.402q.546-.95 1.133-1.871c.031-.05.031-.05.066-.102q.717-1.124 1.481-2.218.03-.04.059-.086a67 67 0 0 1 1.941-2.625l.129-.164q.505-.657 1.027-1.297l.168-.203q.284-.351.578-.696.187-.224.375-.449a11 11 0 0 1 .477-.55c.098-.11.187-.22.277-.333.2-.25.418-.48.633-.71q.18-.195.356-.395.18-.207.367-.406l.363-.399c.36-.402.727-.8 1.113-1.18q.105-.106.2-.218c.246-.281.515-.543.777-.805l.176-.176c.12-.125.246-.246.367-.367q.235-.234.465-.469.18-.177.363-.359c.059-.059.113-.117.172-.172.543-.543.543-.543.797-.758.113-.097.218-.207.324-.316.164-.168.332-.324.512-.477q.227-.205.449-.418.344-.327.695-.644.187-.164.367-.332c.243-.223.485-.438.735-.649.05-.047.105-.09.156-.132.027-.024.05-.047.078-.07q.226-.196.45-.395c.183-.168.37-.32.562-.477q.168-.141.332-.289c.183-.164.37-.32.562-.477q.204-.17.407-.34.286-.244.585-.484l.364-.293q.48-.392.972-.773.142-.113.29-.227a98 98 0 0 1 2.773-2.117c.101-.074.203-.152.305-.226q.622-.457 1.25-.903.18-.122.355-.25.187-.129.367-.258l.196-.136q.827-.585 1.671-1.14l.422-.282a106 106 0 0 1 5.34-3.313l.121-.07.117-.066.098-.059.504-.281c-9.93-.016-19.863-.028-30.094-.043.246-1.281.246-1.281.344-1.73l.035-.16q.043-.21.09-.427.046-.227.098-.46.081-.392.168-.79.124-.573.242-1.148.187-.86.367-1.727.251-1.156.496-2.316l.164-.777q.007-.04.02-.086l.644-3.047c.04-.168.074-.336.11-.504.14-.664.285-1.332.425-1.996q.064-.312.13-.617.075-.36.152-.711c.02-.086.039-.176.054-.262.028-.117.051-.234.078-.352.008-.05.008-.05.02-.101.031-.145.063-.285.098-.43m37.277 32.457c-.043.02-.082.04-.125.063l-.137.066-.14.07c-1.715.871-3.36 1.875-4.953 2.95q-.216.144-.43.289a31 31 0 0 0-.59.402q-.042.033-.09.066-.144.102-.289.204l-.098.07a35 35 0 0 0-1.414 1.058q-.61.47-1.203.957-.1.082-.203.165-.44.359-.867.73-.115.1-.23.195c-.286.246-.567.493-.844.754a12 12 0 0 1-.399.36 6 6 0 0 0-.37.355 6 6 0 0 1-.24.215c-.202.176-.394.363-.585.555-.035.039-.074.074-.11.113l-.234.234-.351.352q-.116.116-.23.226c-.052.055-.052.055-.106.106q-.271.274-.524.566-.106.122-.218.239-.042.04-.079.082a10.91 10.91 0 0 0-.707.8 6 6 0 0 1-.297.336q-.269.294-.507.61-.194.247-.39.488c-2.38 2.898-5.153 7-4.798 10.93.117 1.136.57 2.18 1.438 2.937.14.11.28.207.43.3q.045.034.097.067c.492.317 1.031.496 1.598.633l.129.035c.629.145 1.257.184 1.902.18h.105c3.27-.016 6.512-1.203 9.434-2.586.027-.016.059-.027.09-.043.203-.098.406-.191.61-.289q.036-.023.077-.039c.235-.113.235-.113.47-.23l.108-.051c.141-.106.153-.188.188-.364q.012-.043.023-.09c.02-.105.043-.206.067-.312q.022-.117.05-.234.09-.417.176-.832l.07-.32q.07-.34.145-.684l.211-1q.051-.234.102-.469c.008-.047.008-.047.02-.094q.07-.338.14-.672.271-1.263.535-2.527c.008-.027.012-.055.02-.082q.1-.463.195-.926c.074-.34.144-.676.219-1.015l.015-.086.094-.426q.076-.383.16-.766.048-.216.09-.425c.016-.06.027-.114.04-.172q.006-.04.015-.086.03-.127.054-.254.01-.044.02-.086l.035-.172q.048-.21.09-.426l.254-1.191c.008-.028.012-.055.02-.086q.123-.592.253-1.188.078-.38.16-.761c.008-.028.012-.055.02-.082.172-.82.348-1.645.523-2.465l.36-1.7c.011-.042.011-.042.02-.085q.59-2.771 1.171-5.536c-.113 0-.183.043-.285.094M62.969 45.531h8.176q2.518-.001 5.043.004h19.284q-.009.106-.019.207l-.012.117a3 3 0 0 1-.054.336l-.024.121-.031.133c-.012.07-.012.07-.027.14l-.102.466-.07.336-.153.714q-.11.53-.226 1.051-.166.798-.336 1.594l-.48 2.258q-.07.329-.145.664c-.016.082-.016.082-.035.164-.082.387-.16.773-.242 1.156q-.017.082-.04.168c-.015.082-.035.168-.05.25q-.031.13-.055.254c-.008.027-.012.059-.02.086l-.503 2.371c-.118.566-.239 1.137-.36 1.703-.082.38-.16.754-.242 1.133-.055.258-.11.512-.16.77q-.051.222-.098.445c-.031.164-.066.324-.101.488l-.032.145c-.007.043-.02.086-.027.129l-.023.113c-.024.086-.024.086-.067.129q-.109.005-.218.004c-.075 0-.075 0-.149.004-.05 0-.105-.004-.16-.004-.059 0-.113.004-.172.004h-5.371c-1.125 0-2.254.004-3.379.004h-1.445q-1.724.002-3.442.003h-5.031000000000001q-2.508.005-5.016.004c-.238 0-.472.004-.71.004h-5.977q-.449-.001-.898.004h-.508c-2.02-.004-4.29.211-5.903 1.563l-.113.09c-.687.585-1.117 1.46-1.215 2.355-.05.934.051 1.773.64 2.531l.06.082c.73.934 2.085 1.211 3.19 1.36.567.07 1.134.066 1.704.07h.8979999999999999c.329 0 .653.004.98.004q.689.002 1.376.004h.09c.406 0 .816.004 1.226.004h.176q.724.002 1.45.004.402 0 .812.003c1.488 0 2.972.024 4.457.176l.105.012c3.48.348 7.09 1.207 11.727 4.246q.059.046.117.098c.281.222.543.46.805.703l.312.281c.16.145.305.293.446.457.078.094.16.18.242.27.644.687 1.215 1.46 1.68 2.277q.069.116.132.227c.547.93.985 1.918 1.328 2.94.016.048.032.09.047.138.785 2.367 1.11 4.93 1.028 7.418q.001.042-.004.086c-.137 4.105-1.125 8.066-5.258 14.007q-.083.089-.164.184c-.223.258-.461.5-.703.738-.07.07-.14.145-.215.215-.238.238-.48.473-.738.692-.047.039-.094.082-.141.12-.356.313-.723.602-1.098.883l-.265.2c-.418.32-.848.613-1.285.898q-.053.033-.098.066a29 29 0 0 1-2.695 1.524q-.072.036-.149.074a33 33 0 0 1-3.93 1.64q-.04.016-.082.032c-3.636 1.273-7.46 1.992-14.898 2.676-.055 0-.055 0-.113.004-1.657.093-3.313.093-4.97.09h-6.581c-1.672 0-3.344-.004-5.016-.004h-9.745000000000001q-4.712-.005-9.423-.004l.176-.84.059-.285c.16-.758.316-1.516.48-2.274.031-.16.067-.316.098-.472q.098-.454.191-.907.08-.369.16-.738.606-2.86 1.211-5.715l.153-.715q.374-1.763.754-3.527c.035-.172.074-.344.109-.52q.11-.5.215-1.003h.078q4.16-.004 8.32-.008h.125q1.354-.002 2.707-.004h1.461c1.422-.004 2.848-.004 4.27-.004q2.198-.002 4.394-.004h.746q.984-.005 1.961-.004h1.98q.533-.002 1.071-.004c4.691.032 4.691.032 8.906-1.82.04-.027.075-.055.114-.086.468-.367.906-.781 1.218-1.285.024-.04.047-.074.075-.113.69-1.102.859-2.52.59-3.782-.247-1.015-.837-1.777-1.704-2.332-1.035-.617-2.191-.902-3.375-1.078a1 1 0 0 0-.133-.02c-.988-.136-1.976-.156-2.972-.16h-.528q-.667-.003-1.336-.007-.874-.002-1.753-.004h-.106c-.84-.008-1.683-.012-2.523-.055-.035-.004-.07-.004-.106-.008-3.875-.199-7.847-1.152-12.273-4.16-.063-.047-.063-.047-.121-.094a15 15 0 0 1-.742-.648q-.164-.152-.333-.297c-.457-.41-.875-.879-1.253-1.363q-.03-.042-.063-.082a16 16 0 0 1-.922-1.293q-.022-.035-.05-.074c-2.29-3.622-2.993-8.196-2.528-12.415.008-.078.008-.078.02-.16.234-2.195.761-4.355 1.699-6.363.035-.082.074-.16.11-.242a16.4 16.4 0 0 1 2.163-3.492q.07-.082.133-.168.38-.474.79-.918.146-.158.288-.32.268-.293.555-.575a10.157 10.157 0 0 1 .605-.57 12.373 12.373 0 0 1 1.023-.86c.087-.066.169-.132.255-.203.793-.636 1.656-1.191 2.535-1.707.031-.02.066-.039.097-.058 1.833-1.082 3.774-1.918 5.782-2.602l.082-.031c3.937-1.344 8.09-2.04 14.844-2.555.03 0 .062-.004.093-.004a74 74 0 0 1 3.606-.078M348.969 16.52h12.383000000000003c.707.003 1.41.003 2.117.003h6.577000000000001c-.089.543-.089.543-.14.778-.008.047-.02.094-.027.14q-.02.07-.031.145l-.036.16c-.03.145-.062.285-.093.43q-.046.235-.098.465c-.055.27-.113.535-.172.804l-.246 1.164c-.125.582-.246 1.164-.371 1.746-.172.797-.34 1.594-.512 2.395-.199.941-.398 1.887-.601 2.828l-.446 2.11-.316 1.488q-.106.486-.207.972c-.05.247-.105.489-.156.735a7 7 0 0 0-.063.3c-.031.137-.058.274-.09.41l-.023.122q-.012.051-.023.11-.013.046-.02.093c-.02.074-.02.074-.062.117q-.1.005-.192.004h-.41000000000000003c-.164 0-.328.004-.492.004h-1.1059999999999999q-.599-.001-1.199.004h-.516q-.585-.001-1.171.004h-1.832c-.594 0-1.188.004-1.778.004-.363 0-.73.004-1.094.004h-1.183c-3.024-.004-5.852.707-8.035 2.882-.985 1.036-1.684 2.34-2.2 3.66-.011.028-.027.06-.039.09-.515 1.278-.796 2.641-1.078 3.989q-.085.397-.172.812c9.137.024 9.137.024 18.461.043a7 7 0 0 1-.132.86l-.024.125c-.031.136-.058.277-.09.414-.023.097-.043.199-.062.296q-.08.37-.16.73-.102.482-.204.962l-.058.273a3 3 0 0 0-.04.184q-.062.281-.12.562l-.598 2.805q-.013.046-.02.098l-.187.879q-.687 3.234-1.379 6.468-.007.047-.02.098-.006.047-.019.094l-.14.656q-.093.436-.184.871l-.07.32-.094.434-.024.129a1 1 0 0 0-.027.117 1 1 0 0 0-.02.098c-.023.082-.023.082-.066.168h-18.5c-.07.355-.14.707-.215 1.074-.12.57-.12.57-.16.77q-.016.068-.031.136c-.008.047-.02.094-.028.14q-.033.149-.066.302-.083.405-.172.808-.051.258-.11.516-.786 3.72-1.577 7.441-.4 1.864-.793 3.727-.09.421-.18.844l-.27 1.257q-.311 1.483-.628 2.965c-.086.399-.168.797-.254 1.196-.055.257-.11.511-.164.77q-.01.039-.02.085-.257 1.221-.52 2.441a184 184 0 0 1-.335 1.59q-.45 2.111-.899 4.215a1 1 0 0 1-.02.098q-.113.539-.226 1.082l-.023.097-.082.395-1.336 6.285c-.39 1.832-.782 3.66-1.168 5.492-.094.434-.184.864-.278 1.297l-.164.77c-.011.066-.027.129-.039.191-.156.727-.308 1.453-.465 2.18q-.122.59-.25 1.18l-.164.785c-.035.156-.066.312-.101.465a4 4 0 0 1-.043.214q-.03.14-.063.286c-.007.05-.02.105-.03.16-.032.12-.032.12-.075.207h-23.781c.058-.344.117-.68.191-1.02.008-.047.02-.094.027-.144q.054-.238.102-.477.04-.168.074-.344l.176-.832q.074-.346.148-.687.007-.051.02-.102.02-.1.043-.199.674-3.176 1.348-6.348l.164-.761c.007-.032.011-.063.02-.098q.32-1.495.636-2.996l.023-.098.27-1.277.375-1.77.023-.101.973-4.578.3-1.414c.012-.047.012-.047.02-.094q.319-1.495.637-2.984a1 1 0 0 1 .02-.098c.105-.492.206-.985.312-1.477q.657-3.08 1.309-6.16.659-3.094 1.32-6.195l.082-.395.023-.101q.114-.54.227-1.075c.012-.05.012-.05.02-.097q.45-2.105.894-4.203l.035-.168q.164-.755.32-1.504l.504-2.363q.008-.04.016-.086l.164-.766c.086-.398.168-.797.254-1.195.008-.028.012-.055.02-.086q.041-.21.09-.426l.253-1.191.035-.172q.035-.17.075-.34c.003-.028.011-.055.015-.086q.017-.084.04-.168c.027-.14.058-.285.09-.426l.16-.765q.046-.217.093-.426.008-.047.016-.086.13-.598.254-1.196l.164-.765c.007-.043.007-.043.02-.086q.256-1.224.519-2.441.139-.674.285-1.34l.07-.336.942-4.434.105-.492q.01-.048.02-.098l.46-2.172q.022-.094.043-.195l.528-2.496q.17-.796.336-1.594l.199-.93c.246-1.175.5-2.343.797-3.507q.013-.063.031-.133a41 41 0 0 1 .742-2.523c.02-.055.035-.114.055-.168.902-2.758 2.168-5.434 3.894-7.774l.06-.082q.426-.582.901-1.121.075-.09.145-.18c.289-.363.61-.687.937-1.011l.293-.293c.293-.293.582-.578.91-.836q.154-.123.301-.258a8 8 0 0 1 .68-.543 23 23 0 0 1 3.438-2.082c3.257-1.649 6.972-2.317 10.582-2.567l.14-.011q.253-.017.5-.028c.04 0 .074-.003.11-.003 1.082-.051 2.16-.043 3.242-.043M256.758 45.535h23.781c-.246 1.281-.246 1.281-.34 1.715q-.013.07-.031.152c-.027.133-.059.27-.086.407q-.046.223-.094.441l-.164.762-.258 1.203q-.042.207-.086.414l-.023.101c-.05.247-.105.489-.156.73q-.286 1.342-.57 2.677l-.06.277c-.108.527-.222 1.05-.331 1.574q-.488 2.286-.977 4.57c.172-.023.203-.03.32-.171.036-.055.07-.114.11-.168q.06-.1.125-.192l.066-.101c.106-.16.22-.313.332-.469a1 1 0 0 1 .067-.098c.273-.375.555-.738.836-1.105l.195-.258c.41-.535.84-1.059 1.281-1.574l.184-.219c.25-.297.508-.582.773-.867q.157-.17.309-.34c.195-.219.394-.426.601-.629q.052-.054.11-.11.11-.11.223-.226a28 28 0 0 0 .562-.562q.053-.049.102-.102.269-.264.554-.515c.106-.086.203-.18.305-.27.23-.21.469-.41.715-.61q.075-.058.152-.124c3.242-2.668 7.067-4.54 11.652-5.582q.047-.007.09-.02a35.5 35.5 0 0 1 4.543-.617l.102-.008c.238-.016.476-.027.719-.043.035 0 .07-.004.105-.004.953-.05 1.91-.043 2.867-.043h.715q.676-.001 1.352.004h4.703c-.047.344-.106.68-.18 1.016-.012.066-.012.066-.027.129q-.043.21-.09.422l-.063.304-.14.657q-.117.525-.227 1.05c-.027.121-.05.242-.078.364-.008.043-.008.043-.02.09l-.136.652c-.25 1.16-.496 2.324-.746 3.488q-.096.464-.196.922-.327 1.551-.656 3.098c-.11.503-.215 1.011-.324 1.515q-.106.494-.207.988-.084.374-.16.754c-.024.102-.043.203-.067.305q-.043.21-.09.422l-.023.117q-.1.45-.2.895l-.03.132q-.035.16-.075.32h-.144c-2.117.005-4.234.005-6.352.009h-.097q-1.045.005-2.094.004-.511 0-1.027.003h-.102q-1.652-.001-3.305.004c-1.132 0-2.27 0-3.402.004h-.574c-.508 0-1.016.004-1.52.004h-1.531c-.277 0-.55.004-.828.004-1.512-.008-1.512-.008-3.02.098-.062.008-.125.011-.187.02q-.218.023-.434.054l-.152.023c-1.711.254-3.332.785-4.723 1.832-.035.032-.074.059-.117.09-2.246 1.758-3.289 4.66-3.96 7.344q-.015.059-.028.117c-.285 1.149-.524 2.305-.77 3.461l-.21.996c-.114.547-.231 1.098-.348 1.645-.16.765-.325 1.531-.485 2.293l-.035.168q-.086.415-.18.832l-.21 1q-.01.042-.02.086l-.07.336q-.48 2.267-.965 4.527l-.059.285q-.316 1.487-.633 2.969l-.609 2.87a11551.344 11551.344 0 0 0-1.164 5.477l-.54 2.532q-.097.445-.19.89l-1.829 8.586-.14.657-.254 1.195-.094.433q-.017.064-.027.13c-.008.038-.02.077-.028.117-.007.035-.011.066-.02.101-.019.09-.042.176-.062.266h-23.785c.051-.438.051-.438.09-.63.008-.042.02-.085.027-.128q.016-.07.032-.145t.03-.152q.049-.211.09-.418l.098-.453c.055-.262.114-.527.168-.79l.246-1.155q.202-.944.403-1.887l.527-2.477.2-.93a1 1 0 0 0 .019-.105l.469-2.187 1.03-4.856q.035-.14.063-.285.62-2.907 1.239-5.82.569-2.69 1.144-5.38c.008-.046.008-.046.02-.093l.386-1.82c.188-.887.38-1.778.567-2.664q.022-.094.039-.188l.281-1.324.305-1.414q.02-.093.039-.191c.187-.887.379-1.778.566-2.665q.194-.906.387-1.82.013-.046.02-.094l1.195-5.617 1.258-5.906.633-2.969c.167-.797.34-1.597.507-2.394.016-.063.028-.13.043-.192a1 1 0 0 1 .02-.093l.14-.665c.29-1.367.583-2.73.872-4.097.886-4.176.886-4.176 1.214-5.703q.03-.14.059-.285c.04-.165.074-.333.11-.5l.03-.145c.008-.043.02-.086.028-.133l.023-.11c.024-.093.024-.093.067-.222m0 0" style="stroke:none;fill-rule:nonzero;fill:#fff;fill-opacity:1"/></svg>