<svg id="c-scharff-logo" data-name="c-scharff-logo" xmlns="http://www.w3.org/2000/svg" width="254.179" height="101.9" viewBox="0 0 254.179 101.9">
  <path id="_Compound_Path_" data-name="&lt;Compound Path&gt;" d="M274.806,20.906a1.614,1.614,0,0,1-1.632,1.7c-14.876,1.843-32.211,9.912-40.716,37.529-.236.77-.475,1.583-.711,2.428,8.5-2.342,17.737-5,20.648-5,3.589,0,5.009,2.391,5.009,3.907,0,1.067-1.127,1.835-4.068,2.359-6.682,1.19-15.064,3.2-23.223,5.181-2.731,11.79-5.291,28.066-7.153,46.179-.2,1.988-.832,3.8-3.074,3.8a3.967,3.967,0,0,1-4.3-4.325c0-2.624,4.352-29.329,7.5-43.95-4.968,1.194-9.622,2.277-13.482,3.034a252.9,252.9,0,0,0-3.058,29.435A2.352,2.352,0,0,1,204,105.6a4.341,4.341,0,0,1-4.3-4.385c0-.817.36-4.858,1.53-13.689-2.833,3.241-7.9,5.727-11.275,5.727-3.41,0-5.068-2.37-5.068-7.469a27.508,27.508,0,0,1,.186-3.312c.141-1.238-.447-1.986-2.974-2.671-3.676,11.57-9.507,15.854-14.462,15.854a5.909,5.909,0,0,1-5.857-4.189c-3.171,4.953-6.62,6.843-10.072,6.843a6.917,6.917,0,0,1-6.847-6.2c-3.3,4.636-7.276,8.788-11.022,8.788-2.636,0-3.394-1.9-3.394-4.325,0-3.223,1.374-7.52,1.374-9.4,0-.673-.147-.964-.529-.964-2.7,0-13.926,19.364-19.69,19.364-2.144,0-3.479-1.652-3.479-4.248a42.9,42.9,0,0,1,1.2-8.019c-7.1,8.18-14.5,14.015-20.754,14.015-5.523,0-9.611-3.549-9.611-9.416,0-5.108,3.494-11.1,8.23-15.893a202.617,202.617,0,0,0-19.276,8.842c3.091,1.82,5.059,4.347,5.059,7.982,0,10.99-24.64,19.657-35.894,19.657-4.836,0-9.3-2.678-9.3-5.824,0-3.778,11.486-11.981,25.8-19.929-13.525-1.3-32.946-.884-32.946-11.621,0-15.231,36.262-29.668,56.058-29.668,11.327,0,15.58,4.01,15.58,6.5,0,1.119-.876,1.93-2.36,1.93-3.243,0-4.337-2.551-11.9-2.551-20.689-.257-48.4,14.161-48.4,22.863,0,5.91,19.3,4.629,32.144,8.193,16.024-8.185,33.436-15.1,41.813-15.1,3.364,0,5.453,1.8,5.453,3.857,0,1.693-.863,2.652-1.838,2.652-1.8,0-2.222-1.574-4.424-1.574-5.811,0-15.985,14.081-15.985,20.166a2.2,2.2,0,0,0,2.332,2.378c5.989,0,15.253-8.773,22.765-17.195.377-1.266.772-2.542,1.183-3.81,8.585-26.481,15.792-39.211,20.654-39.211,1.537,0,2.709,1.442,2.709,3.34,0,5.418-6.934,20.643-16.206,34.817-1.652,4.817-2.991,9.687-2.991,12.514,0,.492.072.811.581.811,2.083,0,12.316-16,17.992-16,1.641,0,3.136.867,3.136,4.241,0,2.8-1.545,7.971-1.545,10.453,0,.783.247,1.022.681,1.022,1.866,0,5.321-4.038,8.07-7.462,5.547-6.912,10.606-9.963,15.762-9.963,3.061,0,4.446,1.774,3.958,3.7v0a3.639,3.639,0,0,1,3.223,3.737c0,.845-.687,3.573-.687,5.638,0,1.429.405,1.837,1.194,1.837,2.029,0,5.091-2.874,7.989-11,1.613-4.521,2.638-5.867,4.541-5.867,1.927,0,4.2,1.158,6.318,2.682,2.248,1.621,3.069,3.918,3.069,7.16,0,3.754.639,4.284,2.159,4.284,3.037,0,8.492-4.976,9.309-9.411.219-1.19.286-1.583.429-2.357-5.325.448-8.59-1.432-8.59-3.066,0-1.128.949-1.524,2.176-1.673,1.684-.2,3.323.248,7.357-.28.251-1.341.5-2.648.733-3.913,5.919-32.009,20.19-40.584,26.539-40.584,2.334,0,4.047,1.751,4.047,3.333a1.982,1.982,0,0,1-1.335,1.971c-13,4.9-18.385,16.322-23.06,34.89-.23.91-.453,1.9-.672,2.937,3.945-.983,8.878-2.342,13.965-3.762q.494-1.9,1.027-3.8C234.61,28.75,256.879,17.09,268.159,17.09,273.536,17.09,274.88,18.692,274.806,20.906ZM246.965,90.2c0,2.119-1.871,6.156-5.18,6.156-2.246,0-4.06-1.546-4.06-3.133,0-2.965,2.389-6.63,5.211-6.63A3.8,3.8,0,0,1,246.965,90.2ZM66.338,98.272c0-2.027-1.721-3.292-4.487-4.138-10.5,5.878-20.028,12.311-26.079,17.853C48.012,111.9,66.338,103.905,66.338,98.272ZM162.9,78.759c-6.466,1.721-11.137,7.52-11.137,11.4a1.546,1.546,0,0,0,1.617,1.753C156.935,91.911,160.911,86.042,162.9,78.759Z" transform="translate(-20.63 -17.09)" fill-rule="evenodd"/>
</svg>