<?xml version="1.0" encoding="UTF-8"?>
<svg xmlns="http://www.w3.org/2000/svg" xmlns:xlink="http://www.w3.org/1999/xlink" width="254px" height="101px" viewBox="0 0 254 101" version="1.1">
<g id="surface1">
<path style=" stroke:none;fill-rule:nonzero;fill:rgb(0%,0%,0%);fill-opacity:1;" d="M 78.996094 20.675781 C 78.980469 20.699219 65.496094 88.730469 65.460938 88.957031 L 65.445312 89.054688 L 80.867188 89.054688 L 80.902344 88.894531 C 80.917969 88.8125 82.292969 81.867188 83.957031 73.464844 C 85.625 65.0625 87.027344 58.003906 87.082031 57.785156 C 87.945312 54.238281 89.679688 52 92.136719 51.261719 C 92.816406 51.054688 93.382812 50.980469 94.203125 50.980469 C 94.851562 50.980469 95.152344 51.003906 95.65625 51.113281 C 97.429688 51.492188 98.570312 52.722656 98.984375 54.703125 C 99.09375 55.234375 99.140625 55.675781 99.160156 56.378906 C 99.183594 57.335938 99.109375 58.273438 98.917969 59.472656 C 98.871094 59.753906 97.542969 66.503906 95.964844 74.476562 C 94.382812 82.445312 93.089844 88.988281 93.089844 89.011719 C 93.089844 89.046875 94.085938 89.054688 100.796875 89.054688 L 108.503906 89.054688 L 108.519531 88.96875 C 108.527344 88.925781 109.984375 81.613281 111.757812 72.714844 C 113.527344 63.820312 115.007812 56.347656 115.046875 56.109375 C 115.828125 51.402344 115.289062 47.433594 113.464844 44.503906 C 112.777344 43.398438 111.851562 42.386719 110.824219 41.617188 C 108.589844 39.949219 105.535156 39.082031 102.125 39.148438 C 101.683594 39.160156 101.136719 39.1875 100.898438 39.214844 C 98.167969 39.53125 95.816406 40.628906 93.617188 42.613281 C 92.914062 43.246094 91.824219 44.460938 91.148438 45.363281 C 90.441406 46.304688 89.488281 47.816406 88.90625 48.917969 C 88.761719 49.195312 88.761719 49.195312 88.648438 49.195312 C 88.558594 49.195312 88.542969 49.1875 88.554688 49.140625 C 88.5625 49.113281 88.703125 48.5625 88.863281 47.921875 C 89.5625 45.144531 89.679688 44.601562 92.085938 32.4375 C 93.347656 26.074219 94.386719 20.820312 94.390625 20.757812 L 94.40625 20.648438 L 86.707031 20.648438 C 82.367188 20.648438 79.003906 20.660156 78.996094 20.675781 Z M 78.996094 20.675781 "/>
<path style=" stroke:none;fill-rule:nonzero;fill:rgb(0%,0%,0%);fill-opacity:1;" d="M 231.828125 20.679688 C 226.066406 20.875 221.90625 22.902344 219.160156 26.855469 C 217.742188 28.890625 216.691406 31.433594 215.960938 34.578125 C 215.800781 35.257812 205.167969 88.882812 205.167969 89 C 205.167969 89.050781 205.417969 89.054688 212.875 89.054688 L 220.578125 89.054688 L 224.132812 71.105469 L 227.6875 53.160156 L 233.703125 53.152344 L 239.714844 53.144531 L 239.738281 53.046875 C 239.996094 51.785156 242.136719 40.914062 242.128906 40.898438 C 242.121094 40.886719 239.421875 40.875 236.121094 40.875 C 232.824219 40.875 230.128906 40.867188 230.128906 40.859375 C 230.128906 40.796875 230.453125 39.199219 230.535156 38.871094 C 231.390625 35.34375 233.113281 33.457031 235.902344 32.980469 C 236.585938 32.863281 236.792969 32.855469 240.832031 32.855469 C 242.996094 32.855469 244.769531 32.851562 244.769531 32.84375 C 244.769531 32.839844 245.308594 30.109375 245.96875 26.777344 C 246.628906 23.449219 247.167969 20.707031 247.167969 20.6875 C 247.167969 20.652344 245.828125 20.648438 239.828125 20.652344 C 235.789062 20.652344 232.1875 20.667969 231.828125 20.679688 Z M 231.828125 20.679688 "/>
<path style=" stroke:none;fill-rule:nonzero;fill:rgb(0%,0%,0%);fill-opacity:1;" d="M 46.808594 40.898438 C 39.6875 41.054688 34.09375 42.660156 30.382812 45.617188 C 29.332031 46.457031 28.261719 47.601562 27.550781 48.65625 C 26.175781 50.6875 25.417969 52.933594 25.175781 55.71875 C 25.132812 56.242188 25.132812 57.949219 25.175781 58.457031 C 25.34375 60.316406 25.738281 61.863281 26.417969 63.269531 C 26.710938 63.882812 26.933594 64.261719 27.304688 64.792969 C 29.085938 67.339844 31.875 68.949219 35.472656 69.496094 C 36.546875 69.660156 36.726562 69.667969 39.53125 69.691406 C 41.007812 69.707031 42.285156 69.730469 42.457031 69.75 C 43.285156 69.835938 43.65625 69.902344 44.195312 70.054688 C 45.476562 70.417969 46.257812 71.132812 46.507812 72.175781 C 46.601562 72.558594 46.621094 73.171875 46.5625 73.597656 C 46.390625 74.804688 45.722656 75.730469 44.59375 76.335938 C 43.8125 76.753906 43.101562 76.953125 41.707031 77.152344 C 41.519531 77.175781 38.929688 77.1875 31.640625 77.203125 L 21.824219 77.21875 L 20.660156 83.097656 C 20.019531 86.335938 19.492188 88.996094 19.492188 89.015625 C 19.492188 89.0625 40.183594 89.070312 41.511719 89.023438 C 47.140625 88.824219 51.613281 87.785156 55.175781 85.851562 C 56.828125 84.957031 58.117188 83.984375 59.285156 82.753906 C 61.730469 80.183594 63.046875 77.023438 63.304688 73.105469 C 63.339844 72.546875 63.339844 71.242188 63.304688 70.679688 C 62.996094 65.964844 61 62.542969 57.425781 60.621094 C 55.824219 59.761719 53.863281 59.195312 51.691406 58.96875 C 50.675781 58.859375 50.414062 58.851562 46.851562 58.832031 C 43.621094 58.8125 43.210938 58.808594 42.945312 58.757812 C 42.386719 58.660156 42.066406 58.554688 41.679688 58.339844 C 41.453125 58.21875 41.355469 58.140625 41.160156 57.933594 C 40.898438 57.652344 40.789062 57.46875 40.667969 57.109375 C 40.597656 56.882812 40.589844 56.84375 40.589844 56.332031 C 40.589844 55.710938 40.632812 55.496094 40.835938 55.078125 C 41.328125 54.066406 42.382812 53.460938 44.089844 53.214844 C 44.410156 53.167969 45.300781 53.164062 55.417969 53.152344 L 66.398438 53.144531 L 66.414062 53.078125 C 66.4375 52.964844 68.828125 40.902344 68.828125 40.886719 C 68.828125 40.875 47.414062 40.882812 46.808594 40.898438 Z M 46.808594 40.898438 "/>
<path style=" stroke:none;fill-rule:nonzero;fill:rgb(0%,0%,0%);fill-opacity:1;" d="M 123.164062 40.914062 C 123.144531 40.972656 120.753906 53.074219 120.753906 53.113281 C 120.753906 53.136719 123.410156 53.144531 130.5625 53.144531 C 136.421875 53.144531 140.359375 53.15625 140.34375 53.171875 C 140.328125 53.1875 140.046875 53.367188 139.714844 53.574219 C 135.878906 55.957031 132.027344 58.9375 128.546875 62.210938 C 126.460938 64.171875 124.371094 66.402344 122.648438 68.496094 C 119.351562 72.503906 116.886719 76.585938 115.613281 80.152344 C 114.074219 84.46875 114.296875 87.867188 116.253906 89.890625 C 117.285156 90.960938 118.707031 91.585938 120.628906 91.8125 C 121.132812 91.875 122.867188 91.863281 123.457031 91.796875 C 125.621094 91.554688 127.835938 90.988281 130.359375 90.019531 C 134.355469 88.492188 138.828125 85.964844 143.078125 82.828125 C 143.480469 82.535156 143.804688 82.296875 143.808594 82.304688 C 143.8125 82.304688 142.527344 88.808594 142.488281 88.984375 L 142.472656 89.054688 L 150.191406 89.046875 L 157.914062 89.039062 L 160.691406 75.003906 C 162.222656 67.285156 163.511719 60.738281 163.5625 60.449219 C 163.988281 57.9375 164.085938 55.609375 163.863281 53.460938 C 163.414062 49.125 161.585938 45.71875 158.542969 43.554688 C 157.113281 42.539062 155.546875 41.84375 153.671875 41.386719 C 152.804688 41.179688 151.910156 41.039062 150.730469 40.929688 C 150.15625 40.875 123.183594 40.859375 123.164062 40.914062 Z M 145.785156 72.355469 L 144.023438 81.257812 L 143.546875 81.503906 C 141.453125 82.59375 139.664062 83.230469 138.015625 83.480469 C 137.511719 83.554688 136.242188 83.554688 135.867188 83.480469 C 134.9375 83.292969 134.242188 82.898438 133.8125 82.304688 C 133.390625 81.726562 133.195312 80.988281 133.226562 80.09375 C 133.273438 78.976562 133.613281 77.789062 134.289062 76.382812 C 136.339844 72.121094 141.054688 67.265625 146.117188 64.21875 C 146.636719 63.898438 147.539062 63.410156 147.542969 63.433594 C 147.546875 63.445312 146.757812 67.460938 145.785156 72.355469 Z M 145.785156 72.355469 "/>
<path style=" stroke:none;fill-rule:nonzero;fill:rgb(0%,0%,0%);fill-opacity:1;" d="M 173.617188 40.902344 C 173.609375 40.917969 171.460938 51.726562 168.84375 64.921875 C 166.230469 78.121094 164.078125 88.949219 164.070312 88.988281 L 164.058594 89.054688 L 179.496094 89.039062 L 182.316406 74.808594 C 183.867188 66.980469 185.175781 60.394531 185.230469 60.164062 C 185.738281 57.832031 186.449219 56.195312 187.414062 55.125 C 188.335938 54.109375 189.582031 53.5 191.210938 53.28125 C 192.082031 53.164062 191.996094 53.167969 199.660156 53.152344 L 207.136719 53.140625 L 208.34375 47.046875 C 209.007812 43.695312 209.550781 40.933594 209.546875 40.914062 C 209.546875 40.875 209.050781 40.875 206.53125 40.886719 C 203.570312 40.898438 203.1875 40.914062 202.183594 41.015625 C 196.25 41.617188 191.929688 44.390625 187.917969 50.171875 C 187.6875 50.5 187.414062 50.90625 187.308594 51.074219 C 187.136719 51.335938 187.101562 51.375 187.03125 51.378906 C 186.964844 51.378906 186.957031 51.371094 186.964844 51.3125 C 187.015625 51.109375 189.023438 40.9375 189.023438 40.910156 C 189.023438 40.867188 173.640625 40.863281 173.617188 40.902344 Z M 173.617188 40.902344 "/>
</g>
</svg>
